Coordinates
version=1
nRows=21
nColumns=12
inDegrees=yes

Units are S.I. units (second, meters, Newtons, ...)
Angles are in degrees

endheader
time	SC_y	SC_z	SC_x	AC_y	AC_z	AC_x	GH_y	GH_z	GH_yy	EL_x	PS_y
       0.0              -55.27          16.06          16.43          37.76         -16.99          3.871         -153.4         -17.68          166.5          65.53          119.2
   0.02285              -55.26          16.06          16.43          37.76         -16.99          3.872         -153.3         -17.67          166.4          65.53          119.2
   0.04571              -55.26          16.06          16.43          37.77         -16.99          3.873         -153.3         -17.66          166.4          65.52          119.2
   0.06856              -55.26          16.07          16.44          37.77         -16.98          3.874         -153.3         -17.65          166.3          65.52          119.2
   0.09142              -55.25          16.07          16.44          37.77         -16.98          3.875         -153.3         -17.64          166.3          65.52          119.2
    0.1143              -55.25          16.07          16.44          37.77         -16.98          3.876         -153.3         -17.63          166.2          65.51          119.2
    0.1371              -55.24          16.08          16.44          37.77         -16.98          3.877         -153.2         -17.62          166.2          65.51          119.1
      0.16              -55.23          16.08          16.45          37.78         -16.97          3.878         -153.2         -17.61          166.1           65.5          119.1
    0.1828              -55.23          16.09          16.45          37.78         -16.97           3.88         -153.2          -17.6          166.0           65.5          119.1
    0.2057              -55.22          16.09          16.45          37.78         -16.97          3.881         -153.2         -17.58          166.0          65.49          119.1
    0.2285              -55.21           16.1          16.46          37.79         -16.97          3.883         -153.1         -17.57          165.9          65.48          119.1
    0.2514              -55.21           16.1          16.46          37.79         -16.96          3.885         -153.1         -17.55          165.8          65.48          119.1
    0.2743               -55.2          16.11          16.47          37.79         -16.96          3.886         -153.1         -17.54          165.7          65.47          119.1
    0.2971              -55.19          16.11          16.47           37.8         -16.95          3.888         -153.0         -17.52          165.6          65.46          119.0
      0.32              -55.18          16.12          16.48           37.8         -16.95           3.89         -153.0          -17.5          165.5          65.45          119.0
    0.3428              -55.17          16.13          16.48           37.8         -16.95          3.893         -152.9         -17.48          165.4          65.44          119.0
    0.3657              -55.16          16.14          16.49          37.81         -16.94          3.895         -152.9         -17.45          165.3          65.43          119.0
    0.3885              -55.15          16.14           16.5          37.81         -16.93          3.898         -152.8         -17.43          165.1          65.42          118.9
    0.4114              -55.13          16.15           16.5          37.82         -16.93          3.901         -152.8          -17.4          165.0          65.41          118.9
    0.4342              -55.12          16.16          16.51          37.83         -16.92          3.904         -152.7         -17.37          164.8           65.4          118.9
    0.4571               -55.1          16.17          16.52          37.83         -16.91          3.908         -152.7         -17.34          164.6          65.38          118.8
